<svg width="520" height="120" viewBox="0 0 520 120" fill="none" xmlns="http://www.w3.org/2000/svg">
<g clip-path="url(#clip0_1_2)">
<rect width="520" height="120" rx="8" fill="#082032"/>
<rect width="120" height="120" fill="#F8F8F8"/>
<path d="M153.88 69C153.88 68.73 154 68.37 154.24 67.92L164.38 50.31C164.77 49.56 165.34 49.2 166.06 49.2C167.05 49.2 167.86 50.01 167.86 51C167.86 51.3 167.8 51.6 167.65 51.87L157.24 69.93C156.91 70.5 156.4 70.8 155.68 70.8C154.69 70.8 153.88 69.99 153.88 69ZM149.8 62.46L143.71 51.87C143.56 51.66 143.5 51.36 143.5 51C143.5 50.01 144.31 49.2 145.3 49.2C145.99 49.2 146.53 49.59 146.98 50.34L152.8 60.45C153.04 60.78 153.16 61.14 153.16 61.53C153.16 62.52 152.35 63.33 151.36 63.33C150.7 63.33 150.19 63.03 149.8 62.46ZM178.069 69V51C178.069 50.01 178.879 49.2 179.869 49.2C180.859 49.2 181.669 50.01 181.669 51V69C181.669 69.99 180.859 70.8 179.869 70.8C178.879 70.8 178.069 69.99 178.069 69ZM191.261 60C191.261 57.87 191.831 55.92 192.971 54.15C194.141 52.38 195.641 51.06 197.531 50.19C198.581 49.74 199.571 50.13 200.021 51.06C200.411 51.99 200.051 52.98 199.121 53.43C196.601 54.6 194.861 57.12 194.861 60C194.861 62.88 196.601 65.46 199.121 66.57C200.051 66.96 200.441 68.07 200.051 68.94C199.661 69.87 198.581 70.26 197.651 69.87C195.731 69 194.171 67.71 193.001 65.94C191.831 64.17 191.261 62.19 191.261 60ZM204.041 68.94C203.651 68.07 204.041 66.96 204.971 66.57C205.841 66.15 206.561 65.67 207.131 65.1C207.851 64.38 208.991 64.38 209.681 65.1C210.401 65.79 210.401 66.93 209.681 67.65C208.751 68.58 207.671 69.3 206.441 69.87C205.511 70.26 204.431 69.87 204.041 68.94ZM204.071 51.06C204.461 50.13 205.571 49.74 206.441 50.13C207.491 50.64 208.511 51.33 209.471 52.2C209.981 52.65 210.221 53.13 210.221 53.64C210.221 54.63 209.411 55.44 208.421 55.44C207.911 55.44 207.461 55.26 207.131 54.93C206.441 54.24 205.721 53.76 204.971 53.43C204.041 52.98 203.681 51.93 204.071 51.06ZM239.325 52.8H221.325C220.335 52.8 219.525 51.99 219.525 51C219.525 50.01 220.335 49.2 221.325 49.2H239.325C240.315 49.2 241.125 50.01 241.125 51C241.125 51.99 240.315 52.8 239.325 52.8ZM228.525 69V58.5C228.525 57.51 229.335 56.7 230.325 56.7C231.315 56.7 232.125 57.51 232.125 58.5V69C232.125 69.99 231.315 70.8 230.325 70.8C229.335 70.8 228.525 69.99 228.525 69ZM261.99 68.94C261.6 68.07 261.99 66.96 262.92 66.57C265.47 65.46 267.21 62.88 267.21 60C267.21 57.12 265.47 54.6 262.92 53.43C261.99 52.98 261.63 51.93 262.02 51.06C262.47 50.13 263.49 49.74 264.48 50.19C266.37 51.06 267.9 52.38 269.07 54.15C270.24 55.92 270.81 57.87 270.81 60C270.81 62.19 270.21 64.17 269.04 65.94C267.87 67.71 266.31 69 264.39 69.87C263.46 70.26 262.38 69.87 261.99 68.94ZM249.21 60C249.21 57.87 249.78 55.92 250.92 54.15C252.09 52.38 253.59 51.06 255.48 50.19C256.53 49.74 257.52 50.13 257.97 51.06C258.36 51.99 258 52.98 257.07 53.43C254.55 54.6 252.81 57.12 252.81 60C252.81 62.88 254.55 65.46 257.07 66.57C258 66.96 258.39 68.07 258 68.94C257.61 69.87 256.53 70.26 255.6 69.87C253.68 69 252.12 67.71 250.95 65.94C249.78 64.17 249.21 62.19 249.21 60ZM299.161 56.25C299.161 57.75 298.741 59.1 297.871 60.33C297.001 61.53 295.891 62.37 294.511 62.88L299.371 67.74C299.731 68.1 299.911 68.52 299.911 69C299.911 69.99 299.101 70.8 298.111 70.8C297.601 70.8 297.151 70.62 296.821 70.29L289.321 62.79C288.991 62.46 288.811 62.01 288.811 61.5C288.811 60.51 289.621 59.7 290.611 59.7H292.231C293.161 59.67 293.941 59.31 294.571 58.65C295.231 57.96 295.561 57.18 295.561 56.25C295.561 55.32 295.231 54.54 294.571 53.88C293.941 53.19 293.161 52.83 292.261 52.8H290.611C289.621 52.8 288.811 51.99 288.811 51C288.811 50.01 289.621 49.2 290.611 49.2H292.111C294.061 49.2 295.741 49.89 297.091 51.27C298.471 52.65 299.161 54.3 299.161 56.25ZM281.311 69V51C281.311 50.01 282.121 49.2 283.111 49.2C284.101 49.2 284.911 50.01 284.911 51V69C284.911 69.99 284.101 70.8 283.111 70.8C282.121 70.8 281.311 69.99 281.311 69ZM336.345 68.52C336.345 67.65 336.975 66.9 337.815 66.75C339.225 66.33 339.945 65.58 339.945 64.5C339.945 62.7 338.085 61.8 334.395 61.8C331.605 61.8 329.385 61.26 327.735 60.21C326.085 59.16 325.245 57.57 325.245 55.5C325.245 52.83 327.015 50.82 329.925 49.83C330.255 49.74 330.495 49.68 330.645 49.68C331.635 49.68 332.445 50.49 332.445 51.48C332.445 52.29 331.935 52.86 330.945 53.25C329.535 53.7 328.845 54.45 328.845 55.5C328.845 57.3 330.705 58.2 334.395 58.2C337.185 58.2 339.405 58.74 341.055 59.79C342.705 60.84 343.545 62.43 343.545 64.5C343.545 67.23 341.805 69.21 338.835 70.2C338.775 70.23 338.535 70.26 338.145 70.32C337.155 70.32 336.345 69.51 336.345 68.52ZM327.675 66.06C328.725 66.45 329.775 66.75 330.765 66.96C331.725 67.17 332.445 67.89 332.445 68.76C332.445 69.75 331.635 70.56 330.645 70.56L330.195 70.5C328.665 70.23 327.435 69.87 326.505 69.48C325.575 69.15 325.035 68.07 325.395 67.14C325.785 66.15 326.745 65.73 327.675 66.06ZM336.345 51.39C336.345 50.4 337.155 49.59 338.145 49.59C338.175 49.59 338.355 49.62 338.715 49.68C339.525 49.86 340.425 50.16 341.385 50.55C342.375 51 342.855 51.9 342.495 52.83C342.075 53.88 341.325 54.27 340.245 53.94C339.555 53.67 338.745 53.4 337.785 53.16C336.945 52.95 336.345 52.23 336.345 51.39ZM361.947 51C361.947 50.01 362.757 49.2 363.747 49.2C364.437 49.2 364.947 49.5 365.277 50.07L375.687 68.13C375.837 68.4 375.897 68.67 375.897 69C375.897 69.99 375.087 70.8 374.097 70.8C373.407 70.8 372.837 70.44 372.417 69.69L362.277 52.11C362.067 51.72 361.947 51.33 361.947 51ZM351.747 68.13L357.837 57.54C358.167 56.97 358.677 56.67 359.397 56.67C360.387 56.67 361.197 57.48 361.197 58.47C361.197 58.77 361.077 59.13 360.837 59.58L359.007 62.7H362.817C363.807 62.7 364.617 63.51 364.617 64.5C364.617 65.49 363.807 66.3 362.817 66.3H356.937L355.017 69.69C354.597 70.44 354.027 70.8 353.337 70.8C352.347 70.8 351.537 69.99 351.537 69C351.537 68.67 351.597 68.4 351.747 68.13ZM387.906 49.2C388.356 49.2 388.776 49.38 389.166 49.71L407.196 67.74C407.526 68.13 407.706 68.55 407.706 69C407.706 69.99 406.896 70.8 405.906 70.8C405.396 70.8 404.946 70.62 404.616 70.29L386.616 52.26C385.506 51.27 386.346 49.11 387.906 49.2ZM404.106 58.5V51C404.106 50.01 404.916 49.2 405.906 49.2C406.896 49.2 407.706 50.01 407.706 51V58.5C407.706 59.49 406.896 60.3 405.906 60.3C404.916 60.3 404.106 59.49 404.106 58.5ZM386.106 69V61.5C386.106 60.51 386.916 59.7 387.906 59.7C388.896 59.7 389.706 60.51 389.706 61.5V69C389.706 69.99 388.896 70.8 387.906 70.8C386.916 70.8 386.106 69.99 386.106 69ZM437.695 52.8H419.695C418.705 52.8 417.895 51.99 417.895 51C417.895 50.01 418.705 49.2 419.695 49.2H437.695C438.685 49.2 439.495 50.01 439.495 51C439.495 51.99 438.685 52.8 437.695 52.8ZM426.895 69V58.5C426.895 57.51 427.705 56.7 428.695 56.7C429.685 56.7 430.495 57.51 430.495 58.5V69C430.495 69.99 429.685 70.8 428.695 70.8C427.705 70.8 426.895 69.99 426.895 69ZM460.359 68.94C459.969 68.07 460.359 66.96 461.289 66.57C463.839 65.46 465.579 62.88 465.579 60C465.579 57.12 463.839 54.6 461.289 53.43C460.359 52.98 459.999 51.93 460.389 51.06C460.839 50.13 461.859 49.74 462.849 50.19C464.739 51.06 466.269 52.38 467.439 54.15C468.609 55.92 469.179 57.87 469.179 60C469.179 62.19 468.579 64.17 467.409 65.94C466.239 67.71 464.679 69 462.759 69.87C461.829 70.26 460.749 69.87 460.359 68.94ZM447.579 60C447.579 57.87 448.149 55.92 449.289 54.15C450.459 52.38 451.959 51.06 453.849 50.19C454.899 49.74 455.889 50.13 456.339 51.06C456.729 51.99 456.369 52.98 455.439 53.43C452.919 54.6 451.179 57.12 451.179 60C451.179 62.88 452.919 65.46 455.439 66.57C456.369 66.96 456.759 68.07 456.369 68.94C455.979 69.87 454.899 70.26 453.969 69.87C452.049 69 450.489 67.71 449.319 65.94C448.149 64.17 447.579 62.19 447.579 60ZM490.3 68.52C490.3 67.65 490.93 66.9 491.77 66.75C493.18 66.33 493.9 65.58 493.9 64.5C493.9 62.7 492.04 61.8 488.35 61.8C485.56 61.8 483.34 61.26 481.69 60.21C480.04 59.16 479.2 57.57 479.2 55.5C479.2 52.83 480.97 50.82 483.88 49.83C484.21 49.74 484.45 49.68 484.6 49.68C485.59 49.68 486.4 50.49 486.4 51.48C486.4 52.29 485.89 52.86 484.9 53.25C483.49 53.7 482.8 54.45 482.8 55.5C482.8 57.3 484.66 58.2 488.35 58.2C491.14 58.2 493.36 58.74 495.01 59.79C496.66 60.84 497.5 62.43 497.5 64.5C497.5 67.23 495.76 69.21 492.79 70.2C492.73 70.23 492.49 70.26 492.1 70.32C491.11 70.32 490.3 69.51 490.3 68.52ZM481.63 66.06C482.68 66.45 483.73 66.75 484.72 66.96C485.68 67.17 486.4 67.89 486.4 68.76C486.4 69.75 485.59 70.56 484.6 70.56L484.15 70.5C482.62 70.23 481.39 69.87 480.46 69.48C479.53 69.15 478.99 68.07 479.35 67.14C479.74 66.15 480.7 65.73 481.63 66.06ZM490.3 51.39C490.3 50.4 491.11 49.59 492.1 49.59C492.13 49.59 492.31 49.62 492.67 49.68C493.48 49.86 494.38 50.16 495.34 50.55C496.33 51 496.81 51.9 496.45 52.83C496.03 53.88 495.28 54.27 494.2 53.94C493.51 53.67 492.7 53.4 491.74 53.16C490.9 52.95 490.3 52.23 490.3 51.39Z" fill="#F8F8F8"/>
<path d="M54.616 92.4C54.616 91.536 55 90.384 55.768 88.944L88.216 32.592C89.464 30.192 91.288 29.04 93.592 29.04C96.76 29.04 99.352 31.632 99.352 34.8C99.352 35.76 99.16 36.72 98.68 37.584L65.368 95.376C64.312 97.2 62.68 98.16 60.376 98.16C57.208 98.16 54.616 95.568 54.616 92.4ZM41.56 71.472L22.072 37.584C21.592 36.912 21.4 35.952 21.4 34.8C21.4 31.632 23.992 29.04 27.16 29.04C29.368 29.04 31.096 30.288 32.536 32.688L51.16 65.04C51.928 66.096 52.312 67.248 52.312 68.496C52.312 71.664 49.72 74.256 46.552 74.256C44.44 74.256 42.808 73.296 41.56 71.472Z" fill="#082032"/>
</g>
<defs>
<clipPath id="clip0_1_2">
<rect width="520" height="120" rx="8" fill="white"/>
</clipPath>
</defs>
</svg>
